<svg width="213" height="32" viewBox="0 0 213 32" fill="none" xmlns="http://www.w3.org/2000/svg">
<path d="M133.426 4H213L207.142 18H128L133.426 4Z" fill="#FFF14F"/>
<path d="M137.55 7.9H139.19L138.6 10.65H141.17L141.76 7.9H143.4L141.89 15H140.25L140.87 12.09H138.3L137.68 15H136.04L137.55 7.9ZM146.887 15.06C146.354 15.06 145.884 14.96 145.477 14.76C145.077 14.5533 144.744 14.28 144.477 13.94C144.217 13.5933 144.034 13.2067 143.927 12.78C143.82 12.3467 143.797 11.9 143.857 11.44C143.924 10.9667 144.074 10.5167 144.307 10.09C144.547 9.66333 144.85 9.28333 145.217 8.95C145.59 8.61 146.007 8.34333 146.467 8.15C146.934 7.95667 147.424 7.86 147.937 7.86C148.47 7.86 148.937 7.96 149.337 8.16C149.744 8.36 150.077 8.63333 150.337 8.98C150.604 9.32667 150.787 9.71667 150.887 10.15C150.994 10.5767 151.017 11.0167 150.957 11.47C150.89 11.9433 150.74 12.3967 150.507 12.83C150.274 13.2567 149.974 13.6367 149.607 13.97C149.24 14.3033 148.824 14.57 148.357 14.77C147.897 14.9633 147.407 15.06 146.887 15.06ZM147.117 13.6C147.43 13.6 147.71 13.54 147.957 13.42C148.21 13.2933 148.43 13.1267 148.617 12.92C148.804 12.7133 148.954 12.4833 149.067 12.23C149.18 11.97 149.257 11.7067 149.297 11.44C149.33 11.16 149.324 10.8933 149.277 10.64C149.237 10.3867 149.147 10.16 149.007 9.96C148.874 9.76 148.697 9.60333 148.477 9.49C148.264 9.37667 148.007 9.32 147.707 9.32C147.394 9.32 147.11 9.38 146.857 9.5C146.604 9.62 146.384 9.78333 146.197 9.99C146.01 10.19 145.86 10.42 145.747 10.68C145.634 10.9333 145.557 11.1933 145.517 11.46C145.484 11.7333 145.49 12 145.537 12.26C145.584 12.5133 145.67 12.74 145.797 12.94C145.93 13.14 146.104 13.3 146.317 13.42C146.537 13.54 146.804 13.6 147.117 13.6ZM152.923 7.9H156.713C156.98 7.9 157.2 7.97 157.373 8.11C157.553 8.25 157.686 8.43 157.773 8.65C157.866 8.87 157.913 9.10667 157.913 9.36C157.913 9.62667 157.86 9.89333 157.753 10.16C157.646 10.42 157.49 10.6567 157.283 10.87C157.083 11.0767 156.836 11.24 156.543 11.36C156.836 11.4533 157.063 11.6233 157.223 11.87C157.39 12.11 157.473 12.4067 157.473 12.76C157.473 13.14 157.396 13.47 157.243 13.75C157.096 14.03 156.893 14.2633 156.633 14.45C156.373 14.63 156.076 14.7667 155.743 14.86C155.41 14.9533 155.063 15 154.703 15H151.413L152.923 7.9ZM155.003 13.61C155.11 13.61 155.213 13.5867 155.313 13.54C155.42 13.4933 155.51 13.43 155.583 13.35C155.663 13.2633 155.726 13.16 155.773 13.04C155.826 12.92 155.853 12.7933 155.853 12.66C155.853 12.5467 155.833 12.4467 155.793 12.36C155.753 12.2667 155.7 12.1933 155.633 12.14C155.566 12.0867 155.486 12.06 155.393 12.06H153.673L153.353 13.61H155.003ZM155.403 10.77C155.496 10.77 155.59 10.75 155.683 10.71C155.776 10.67 155.863 10.6133 155.943 10.54C156.023 10.46 156.086 10.3633 156.133 10.25C156.18 10.1367 156.203 10 156.203 9.84C156.203 9.66667 156.163 9.53333 156.083 9.44C156.003 9.34667 155.9 9.3 155.773 9.3H154.263L153.953 10.77H155.403ZM158.274 15L159.774 7.9H161.424L160.904 10.35H161.814C162.341 10.35 162.778 10.4433 163.124 10.63C163.471 10.8167 163.718 11.0833 163.864 11.43C164.018 11.7767 164.058 12.1867 163.984 12.66C163.918 13.1267 163.761 13.5367 163.514 13.89C163.274 14.2433 162.958 14.5167 162.564 14.71C162.178 14.9033 161.728 15 161.214 15H158.274ZM160.214 13.65H161.174C161.401 13.65 161.591 13.6067 161.744 13.52C161.904 13.4333 162.031 13.3167 162.124 13.17C162.224 13.0167 162.288 12.8467 162.314 12.66C162.341 12.4933 162.331 12.3367 162.284 12.19C162.238 12.0433 162.148 11.9267 162.014 11.84C161.888 11.7467 161.708 11.7 161.474 11.7H160.614L160.214 13.65ZM165.934 7.9H167.574L166.064 15H164.424L165.934 7.9ZM167.675 15L169.175 7.9H170.825L169.805 12.71L173.635 7.9H175.175L173.675 15H172.025L173.015 10.39L169.245 15H167.675ZM172.225 7.39C171.638 7.39 171.185 7.25 170.865 6.97C170.551 6.69 170.428 6.31333 170.495 5.84H171.745C171.718 6.02 171.761 6.16333 171.875 6.27C171.995 6.37 172.155 6.42 172.355 6.42C172.561 6.42 172.741 6.37 172.895 6.27C173.048 6.17 173.138 6.02667 173.165 5.84H174.405C174.365 6.15333 174.245 6.42667 174.045 6.66C173.851 6.89333 173.598 7.07333 173.285 7.2C172.978 7.32667 172.625 7.39 172.225 7.39ZM180.613 15.06C180.133 15.06 179.716 14.9933 179.363 14.86C179.01 14.72 178.713 14.5267 178.473 14.28C178.233 14.0267 178.04 13.74 177.893 13.42L179.363 12.62C179.436 12.82 179.54 12.9933 179.673 13.14C179.806 13.2867 179.97 13.4 180.163 13.48C180.356 13.56 180.58 13.6 180.833 13.6C181.146 13.6 181.426 13.5433 181.673 13.43C181.926 13.3167 182.143 13.16 182.323 12.96C182.51 12.76 182.66 12.53 182.773 12.27C182.893 12.01 182.973 11.7333 183.013 11.44C183.073 11.0267 183.056 10.66 182.963 10.34C182.87 10.02 182.696 9.77 182.443 9.59C182.196 9.41 181.87 9.32 181.463 9.32C181.09 9.32 180.753 9.41 180.453 9.59C180.16 9.76333 179.92 10.0033 179.733 10.31L178.563 9.4C178.93 8.94667 179.363 8.57667 179.863 8.29C180.363 8.00333 180.976 7.86 181.703 7.86C182.263 7.86 182.746 7.96 183.153 8.16C183.56 8.36 183.886 8.63 184.133 8.97C184.38 9.30333 184.55 9.68667 184.643 10.12C184.736 10.5467 184.746 10.9967 184.673 11.47C184.606 11.95 184.46 12.4067 184.233 12.84C184.006 13.2733 183.713 13.6567 183.353 13.99C183 14.3233 182.59 14.5867 182.123 14.78C181.663 14.9667 181.16 15.06 180.613 15.06ZM180.413 12.03L180.683 10.72H183.603L183.343 12.03H180.413ZM187.599 9.34H185.569L185.869 7.9H191.559L191.259 9.34H189.239L188.029 15H186.389L187.599 9.34ZM193.802 7.9H195.292L196.212 15H194.532L194.382 13.41H192.362L191.552 15H189.862L193.802 7.9ZM194.352 12.28L194.152 9.77L192.852 12.28H194.352ZM196.923 15L198.423 7.9H204.333L202.833 15H201.193L202.393 9.34H199.763L198.573 15H196.923Z" fill="#383838"/>
<path d="M40.288 24.904C40.288 24.6107 40.3387 24.3333 40.44 24.072C40.5413 23.8107 40.6853 23.584 40.872 23.392C41.0587 23.1947 41.28 23.04 41.536 22.928C41.7973 22.8107 42.088 22.752 42.408 22.752C42.824 22.752 43.1813 22.8453 43.48 23.032C43.784 23.2133 44.0133 23.4587 44.168 23.768L43.48 23.984C43.3733 23.7867 43.224 23.6347 43.032 23.528C42.84 23.416 42.6267 23.36 42.392 23.36C42.2 23.36 42.0187 23.4 41.848 23.48C41.6773 23.5547 41.5307 23.6613 41.408 23.8C41.2853 23.9387 41.1867 24.1013 41.112 24.288C41.0427 24.4747 41.008 24.68 41.008 24.904C41.008 25.1227 41.0453 25.328 41.12 25.52C41.1947 25.712 41.2933 25.88 41.416 26.024C41.544 26.1627 41.6907 26.272 41.856 26.352C42.0267 26.432 42.208 26.472 42.4 26.472C42.5227 26.472 42.6427 26.456 42.76 26.424C42.8827 26.3867 42.992 26.3387 43.088 26.28C43.1893 26.2213 43.2773 26.1547 43.352 26.08C43.4267 26 43.48 25.9147 43.512 25.824L44.2 26.032C44.136 26.1867 44.0453 26.328 43.928 26.456C43.816 26.584 43.6827 26.6933 43.528 26.784C43.3733 26.8747 43.2 26.9467 43.008 27C42.8213 27.0533 42.624 27.08 42.416 27.08C42.1013 27.08 41.8133 27.0213 41.552 26.904C41.2907 26.7867 41.0667 26.6293 40.88 26.432C40.6933 26.2347 40.5467 26.0053 40.44 25.744C40.3387 25.4773 40.288 25.1973 40.288 24.904ZM45.7017 26.008L47.9737 22.824H48.5417V27H47.8537V23.88L45.6217 27H45.0137V22.824H45.7017V26.008ZM49.4208 24.904C49.4208 24.6107 49.4715 24.3333 49.5728 24.072C49.6741 23.8107 49.8181 23.584 50.0048 23.392C50.1915 23.1947 50.4128 23.04 50.6688 22.928C50.9301 22.8107 51.2208 22.752 51.5408 22.752C51.9568 22.752 52.3141 22.8453 52.6128 23.032C52.9168 23.2133 53.1461 23.4587 53.3008 23.768L52.6128 23.984C52.5061 23.7867 52.3568 23.6347 52.1648 23.528C51.9728 23.416 51.7595 23.36 51.5248 23.36C51.3328 23.36 51.1515 23.4 50.9808 23.48C50.8101 23.5547 50.6635 23.6613 50.5408 23.8C50.4181 23.9387 50.3195 24.1013 50.2448 24.288C50.1755 24.4747 50.1408 24.68 50.1408 24.904C50.1408 25.1227 50.1781 25.328 50.2528 25.52C50.3275 25.712 50.4261 25.88 50.5488 26.024C50.6768 26.1627 50.8235 26.272 50.9888 26.352C51.1595 26.432 51.3408 26.472 51.5328 26.472C51.6555 26.472 51.7755 26.456 51.8928 26.424C52.0155 26.3867 52.1248 26.3387 52.2208 26.28C52.3221 26.2213 52.4101 26.1547 52.4848 26.08C52.5595 26 52.6128 25.9147 52.6448 25.824L53.3328 26.032C53.2688 26.1867 53.1781 26.328 53.0608 26.456C52.9488 26.584 52.8155 26.6933 52.6608 26.784C52.5061 26.8747 52.3328 26.9467 52.1408 27C51.9541 27.0533 51.7568 27.08 51.5488 27.08C51.2341 27.08 50.9461 27.0213 50.6848 26.904C50.4235 26.7867 50.1995 26.6293 50.0128 26.432C49.8261 26.2347 49.6795 26.0053 49.5728 25.744C49.4715 25.4773 49.4208 25.1973 49.4208 24.904ZM55.8185 27H55.1305V23.432H53.7305V22.824H57.2185V23.432H55.8185V27ZM59.7207 27.08C59.406 27.08 59.118 27.024 58.8567 26.912C58.5954 26.7947 58.3714 26.6373 58.1847 26.44C57.998 26.2427 57.8514 26.0133 57.7447 25.752C57.6434 25.4853 57.5927 25.2053 57.5927 24.912C57.5927 24.6187 57.6434 24.3413 57.7447 24.08C57.8514 23.8187 57.998 23.5893 58.1847 23.392C58.3767 23.1947 58.6034 23.04 58.8647 22.928C59.126 22.8107 59.414 22.752 59.7287 22.752C60.0434 22.752 60.3287 22.8107 60.5847 22.928C60.846 23.0453 61.0674 23.2027 61.2487 23.4C61.43 23.592 61.5687 23.8187 61.6647 24.08C61.766 24.336 61.8167 24.6027 61.8167 24.88C61.8167 24.9387 61.814 24.992 61.8087 25.04C61.8087 25.088 61.806 25.1253 61.8007 25.152H58.3367C58.3527 25.36 58.4007 25.5493 58.4807 25.72C58.5607 25.8907 58.6647 26.0373 58.7927 26.16C58.9207 26.2827 59.0647 26.3787 59.2247 26.448C59.39 26.5173 59.5634 26.552 59.7447 26.552C59.8727 26.552 59.998 26.536 60.1207 26.504C60.2434 26.4667 60.358 26.4187 60.4647 26.36C60.5714 26.3013 60.6647 26.2293 60.7447 26.144C60.83 26.0587 60.894 25.9627 60.9367 25.856L61.5447 26.024C61.4754 26.1787 61.3794 26.32 61.2567 26.448C61.1394 26.576 61.0007 26.688 60.8407 26.784C60.686 26.8747 60.5127 26.9467 60.3207 27C60.1287 27.0533 59.9287 27.08 59.7207 27.08ZM61.1527 24.632C61.1367 24.4347 61.086 24.2533 61.0007 24.088C60.9207 23.9173 60.8167 23.7733 60.6887 23.656C60.566 23.5387 60.422 23.448 60.2567 23.384C60.0914 23.3147 59.9154 23.28 59.7287 23.28C59.542 23.28 59.366 23.3147 59.2007 23.384C59.0354 23.448 58.8887 23.5413 58.7607 23.664C58.638 23.7813 58.5367 23.9227 58.4567 24.088C58.382 24.2533 58.3367 24.4347 58.3207 24.632H61.1527ZM64.7353 25.472L66.1513 22.824H66.8473V27H66.1593V24.056L64.9353 26.32H64.5353L63.3033 24.056V27H62.6153V22.824H63.3193L64.7353 25.472ZM69.0697 27.08C68.8724 27.08 68.6884 27.048 68.5177 26.984C68.347 26.9147 68.1977 26.8213 68.0697 26.704C67.947 26.5867 67.8484 26.4507 67.7737 26.296C67.7044 26.136 67.6697 25.9627 67.6697 25.776C67.6697 25.584 67.7124 25.4107 67.7977 25.256C67.883 25.096 68.003 24.96 68.1577 24.848C68.3177 24.736 68.5044 24.648 68.7177 24.584C68.9364 24.52 69.1737 24.488 69.4297 24.488C69.6324 24.488 69.8377 24.5067 70.0457 24.544C70.2537 24.5813 70.4377 24.632 70.5977 24.696V24.36C70.5977 24.0187 70.5017 23.752 70.3097 23.56C70.1177 23.3627 69.8457 23.264 69.4937 23.264C69.0724 23.264 68.6297 23.4267 68.1657 23.752L67.9337 23.296C68.4724 22.9333 69.0137 22.752 69.5577 22.752C70.107 22.752 70.5337 22.8987 70.8377 23.192C71.147 23.4853 71.3017 23.8987 71.3017 24.432V26.136C71.3017 26.3013 71.3764 26.3867 71.5257 26.392V27C71.451 27.0107 71.3897 27.0187 71.3417 27.024C71.2937 27.0293 71.243 27.032 71.1897 27.032C71.051 27.032 70.939 26.992 70.8537 26.912C70.7737 26.8267 70.7257 26.7253 70.7097 26.608L70.6937 26.312C70.507 26.5627 70.2697 26.7547 69.9817 26.888C69.699 27.016 69.395 27.08 69.0697 27.08ZM69.2537 26.552C69.5044 26.552 69.7364 26.5067 69.9497 26.416C70.1684 26.32 70.3337 26.1947 70.4457 26.04C70.547 25.9387 70.5977 25.8347 70.5977 25.728V25.112C70.2564 24.9787 69.9017 24.912 69.5337 24.912C69.1817 24.912 68.8937 24.9867 68.6697 25.136C68.451 25.2853 68.3417 25.48 68.3417 25.72C68.3417 25.8373 68.363 25.9467 68.4057 26.048C68.4537 26.1493 68.5177 26.2373 68.5977 26.312C68.683 26.3867 68.7817 26.4453 68.8937 26.488C69.0057 26.5307 69.1257 26.552 69.2537 26.552ZM75.1626 24.56H77.2746V22.824H77.9626V27H77.2746V25.144H75.1626V27H74.4746V22.824H75.1626V24.56ZM80.1869 27.08C79.9895 27.08 79.8055 27.048 79.6349 26.984C79.4642 26.9147 79.3149 26.8213 79.1869 26.704C79.0642 26.5867 78.9655 26.4507 78.8909 26.296C78.8215 26.136 78.7869 25.9627 78.7869 25.776C78.7869 25.584 78.8295 25.4107 78.9149 25.256C79.0002 25.096 79.1202 24.96 79.2749 24.848C79.4349 24.736 79.6215 24.648 79.8349 24.584C80.0535 24.52 80.2909 24.488 80.5469 24.488C80.7495 24.488 80.9549 24.5067 81.1629 24.544C81.3709 24.5813 81.5549 24.632 81.7149 24.696V24.36C81.7149 24.0187 81.6189 23.752 81.4269 23.56C81.2349 23.3627 80.9629 23.264 80.6109 23.264C80.1895 23.264 79.7469 23.4267 79.2829 23.752L79.0509 23.296C79.5895 22.9333 80.1309 22.752 80.6749 22.752C81.2242 22.752 81.6509 22.8987 81.9549 23.192C82.2642 23.4853 82.4189 23.8987 82.4189 24.432V26.136C82.4189 26.3013 82.4935 26.3867 82.6429 26.392V27C82.5682 27.0107 82.5069 27.0187 82.4589 27.024C82.4109 27.0293 82.3602 27.032 82.3069 27.032C82.1682 27.032 82.0562 26.992 81.9709 26.912C81.8909 26.8267 81.8429 26.7253 81.8269 26.608L81.8109 26.312C81.6242 26.5627 81.3869 26.7547 81.0989 26.888C80.8162 27.016 80.5122 27.08 80.1869 27.08ZM80.3709 26.552C80.6215 26.552 80.8535 26.5067 81.0669 26.416C81.2855 26.32 81.4509 26.1947 81.5629 26.04C81.6642 25.9387 81.7149 25.8347 81.7149 25.728V25.112C81.3735 24.9787 81.0189 24.912 80.6509 24.912C80.2989 24.912 80.0109 24.9867 79.7869 25.136C79.5682 25.2853 79.4589 25.48 79.4589 25.72C79.4589 25.8373 79.4802 25.9467 79.5229 26.048C79.5709 26.1493 79.6349 26.2373 79.7149 26.312C79.8002 26.3867 79.8989 26.4453 80.0109 26.488C80.1229 26.5307 80.2429 26.552 80.3709 26.552ZM87.7118 25.472L89.1278 22.824H89.8238V27H89.1358V24.056L87.9118 26.32H87.5118L86.2798 24.056V27H85.5918V22.824H86.2958L87.7118 25.472ZM91.6783 26.008L93.9503 22.824H94.5182V27H93.8303V23.88L91.5983 27H90.9903V22.824H91.6783V26.008ZM95.1414 26.424C95.312 26.408 95.4534 26.368 95.5654 26.304C95.6827 26.2347 95.7787 26.1147 95.8534 25.944C95.9334 25.768 96 25.5253 96.0534 25.216C96.1067 24.9013 96.16 24.4933 96.2134 23.992L96.3414 22.824H98.9414V27H98.2534V23.376H96.9894L96.8694 24.28C96.7947 24.824 96.7147 25.272 96.6294 25.624C96.5494 25.9707 96.448 26.248 96.3254 26.456C96.2027 26.6587 96.056 26.8027 95.8854 26.888C95.7147 26.9733 95.5067 27.024 95.2614 27.04L95.1414 26.424ZM99.5554 26.424C99.7261 26.408 99.8674 26.368 99.9794 26.304C100.097 26.2347 100.193 26.1147 100.267 25.944C100.347 25.768 100.414 25.5253 100.467 25.216C100.521 24.9013 100.574 24.4933 100.627 23.992L100.755 22.824H103.355V27H102.667V23.376H101.403L101.283 24.28C101.209 24.824 101.129 25.272 101.043 25.624C100.963 25.9707 100.862 26.248 100.739 26.456C100.617 26.6587 100.47 26.8027 100.299 26.888C100.129 26.9733 99.9208 27.024 99.6754 27.04L99.5554 26.424ZM105.21 26.008L107.482 22.824H108.049V27H107.362V23.88L105.13 27H104.522V22.824H105.21V26.008ZM111.033 27.08C110.718 27.08 110.43 27.0213 110.169 26.904C109.913 26.7867 109.691 26.6293 109.505 26.432C109.323 26.2347 109.182 26.0053 109.081 25.744C108.979 25.4827 108.929 25.208 108.929 24.92C108.929 24.6267 108.979 24.3493 109.081 24.088C109.187 23.8267 109.331 23.5973 109.513 23.4C109.699 23.2027 109.921 23.0453 110.177 22.928C110.438 22.8107 110.723 22.752 111.033 22.752C111.342 22.752 111.627 22.8107 111.889 22.928C112.15 23.0453 112.371 23.2027 112.553 23.4C112.739 23.5973 112.883 23.8267 112.985 24.088C113.091 24.3493 113.145 24.6267 113.145 24.92C113.145 25.208 113.094 25.4827 112.993 25.744C112.891 26.0053 112.747 26.2347 112.561 26.432C112.374 26.6293 112.15 26.7867 111.889 26.904C111.633 27.0213 111.347 27.08 111.033 27.08ZM109.649 24.928C109.649 25.1467 109.683 25.3493 109.753 25.536C109.827 25.7227 109.926 25.8853 110.049 26.024C110.177 26.1627 110.323 26.272 110.489 26.352C110.659 26.432 110.841 26.472 111.033 26.472C111.225 26.472 111.403 26.432 111.569 26.352C111.739 26.272 111.889 26.1627 112.017 26.024C112.145 25.88 112.243 25.7147 112.313 25.528C112.387 25.336 112.425 25.1307 112.425 24.912C112.425 24.6987 112.387 24.4987 112.313 24.312C112.243 24.12 112.145 23.9547 112.017 23.816C111.889 23.672 111.739 23.56 111.569 23.48C111.403 23.4 111.225 23.36 111.033 23.36C110.841 23.36 110.659 23.4027 110.489 23.488C110.323 23.568 110.177 23.68 110.049 23.824C109.926 23.9627 109.827 24.128 109.753 24.32C109.683 24.5067 109.649 24.7093 109.649 24.928ZM114.702 24.56H116.814V22.824H117.502V27H116.814V25.144H114.702V27H114.014V22.824H114.702V24.56ZM122.501 27.08C122.187 27.08 121.899 27.0213 121.637 26.904C121.381 26.7867 121.16 26.6293 120.973 26.432C120.792 26.2347 120.651 26.0053 120.549 25.744C120.448 25.4827 120.397 25.208 120.397 24.92C120.397 24.6267 120.448 24.3493 120.549 24.088C120.656 23.8267 120.8 23.5973 120.981 23.4C121.168 23.2027 121.389 23.0453 121.645 22.928C121.907 22.8107 122.192 22.752 122.501 22.752C122.811 22.752 123.096 22.8107 123.357 22.928C123.619 23.0453 123.84 23.2027 124.021 23.4C124.208 23.5973 124.352 23.8267 124.453 24.088C124.56 24.3493 124.613 24.6267 124.613 24.92C124.613 25.208 124.563 25.4827 124.461 25.744C124.36 26.0053 124.216 26.2347 124.029 26.432C123.843 26.6293 123.619 26.7867 123.357 26.904C123.101 27.0213 122.816 27.08 122.501 27.08ZM121.117 24.928C121.117 25.1467 121.152 25.3493 121.221 25.536C121.296 25.7227 121.395 25.8853 121.517 26.024C121.645 26.1627 121.792 26.272 121.957 26.352C122.128 26.432 122.309 26.472 122.501 26.472C122.693 26.472 122.872 26.432 123.037 26.352C123.208 26.272 123.357 26.1627 123.485 26.024C123.613 25.88 123.712 25.7147 123.781 25.528C123.856 25.336 123.893 25.1307 123.893 24.912C123.893 24.6987 123.856 24.4987 123.781 24.312C123.712 24.12 123.613 23.9547 123.485 23.816C123.357 23.672 123.208 23.56 123.037 23.48C122.872 23.4 122.693 23.36 122.501 23.36C122.309 23.36 122.128 23.4027 121.957 23.488C121.792 23.568 121.645 23.68 121.517 23.824C121.395 23.9627 121.296 24.128 121.221 24.32C121.152 24.5067 121.117 24.7093 121.117 24.928ZM127.076 27H126.388V23.432H124.988V22.824H128.476V23.432H127.076V27ZM135.56 25.536C135.56 25.7547 135.515 25.9547 135.424 26.136C135.339 26.3173 135.219 26.472 135.064 26.6C134.915 26.728 134.739 26.8267 134.536 26.896C134.339 26.9653 134.125 27 133.896 27H131.2V21.32H134.024C134.221 21.32 134.4 21.3627 134.56 21.448C134.72 21.5333 134.856 21.6453 134.968 21.784C135.08 21.9173 135.165 22.072 135.224 22.248C135.288 22.4187 135.32 22.592 135.32 22.768C135.32 23.0507 135.248 23.312 135.104 23.552C134.965 23.792 134.765 23.9707 134.504 24.088C134.829 24.184 135.085 24.3627 135.272 24.624C135.464 24.88 135.56 25.184 135.56 25.536ZM134.832 25.408C134.832 25.28 134.808 25.1573 134.76 25.04C134.717 24.9173 134.656 24.8107 134.576 24.72C134.501 24.6293 134.411 24.5573 134.304 24.504C134.197 24.4507 134.08 24.424 133.952 24.424H131.92V26.376H133.896C134.029 26.376 134.152 26.3493 134.264 26.296C134.376 26.2427 134.475 26.1733 134.56 26.088C134.645 25.9973 134.712 25.8933 134.76 25.776C134.808 25.6587 134.832 25.536 134.832 25.408ZM131.92 21.944V23.84H133.728C133.856 23.84 133.973 23.816 134.08 23.768C134.187 23.7147 134.277 23.6453 134.352 23.56C134.432 23.4747 134.493 23.376 134.536 23.264C134.584 23.1467 134.608 23.024 134.608 22.896C134.608 22.7627 134.587 22.6373 134.544 22.52C134.501 22.4027 134.443 22.3013 134.368 22.216C134.299 22.1307 134.211 22.064 134.104 22.016C134.003 21.968 133.893 21.944 133.776 21.944H131.92ZM136.024 26.424C136.195 26.408 136.336 26.368 136.448 26.304C136.566 26.2347 136.662 26.1147 136.736 25.944C136.816 25.768 136.883 25.5253 136.936 25.216C136.99 24.9013 137.043 24.4933 137.096 23.992L137.224 22.824H139.824V27H139.136V23.376H137.872L137.752 24.28C137.678 24.824 137.598 25.272 137.512 25.624C137.432 25.9707 137.331 26.248 137.208 26.456C137.086 26.6587 136.939 26.8027 136.768 26.888C136.598 26.9733 136.39 27.024 136.144 27.04L136.024 26.424ZM142.046 27.08C141.849 27.08 141.665 27.048 141.494 26.984C141.324 26.9147 141.174 26.8213 141.046 26.704C140.924 26.5867 140.825 26.4507 140.75 26.296C140.681 26.136 140.646 25.9627 140.646 25.776C140.646 25.584 140.689 25.4107 140.774 25.256C140.86 25.096 140.98 24.96 141.134 24.848C141.294 24.736 141.481 24.648 141.694 24.584C141.913 24.52 142.15 24.488 142.406 24.488C142.609 24.488 142.814 24.5067 143.022 24.544C143.23 24.5813 143.414 24.632 143.574 24.696V24.36C143.574 24.0187 143.478 23.752 143.286 23.56C143.094 23.3627 142.822 23.264 142.47 23.264C142.049 23.264 141.606 23.4267 141.142 23.752L140.91 23.296C141.449 22.9333 141.99 22.752 142.534 22.752C143.084 22.752 143.51 22.8987 143.814 23.192C144.124 23.4853 144.278 23.8987 144.278 24.432V26.136C144.278 26.3013 144.353 26.3867 144.502 26.392V27C144.428 27.0107 144.366 27.0187 144.318 27.024C144.27 27.0293 144.22 27.032 144.166 27.032C144.028 27.032 143.916 26.992 143.83 26.912C143.75 26.8267 143.702 26.7253 143.686 26.608L143.67 26.312C143.484 26.5627 143.246 26.7547 142.958 26.888C142.676 27.016 142.372 27.08 142.046 27.08ZM142.23 26.552C142.481 26.552 142.713 26.5067 142.926 26.416C143.145 26.32 143.31 26.1947 143.422 26.04C143.524 25.9387 143.574 25.8347 143.574 25.728V25.112C143.233 24.9787 142.878 24.912 142.51 24.912C142.158 24.912 141.87 24.9867 141.646 25.136C141.428 25.2853 141.318 25.48 141.318 25.72C141.318 25.8373 141.34 25.9467 141.382 26.048C141.43 26.1493 141.494 26.2373 141.574 26.312C141.66 26.3867 141.758 26.4453 141.87 26.488C141.982 26.5307 142.102 26.552 142.23 26.552ZM144.988 26.392H145.228C145.356 26.36 145.462 26.3013 145.548 26.216C145.638 26.1307 145.716 26 145.78 25.824C145.844 25.6427 145.9 25.4053 145.948 25.112C145.996 24.8133 146.044 24.44 146.092 23.992L146.22 22.824H148.82V26.392H149.316V28.312H148.708V27H145.572V28.312H144.988V26.392ZM148.132 26.392V23.376H146.868L146.748 24.28C146.673 24.856 146.588 25.312 146.492 25.648C146.401 25.9787 146.289 26.2267 146.156 26.392H148.132ZM150.85 26.008L153.122 22.824H153.69V27H153.002V23.88L150.77 27H150.162V22.824H150.85V26.008ZM156.985 25.472L158.401 22.824H159.097V27H158.409V24.056L157.185 26.32H156.785L155.553 24.056V27H154.865V22.824H155.569L156.985 25.472ZM160.952 26.008L163.224 22.824H163.792V27H163.104V23.88L160.872 27H160.264V22.824H160.952V26.008ZM167.215 27.08C166.868 27.08 166.561 26.9947 166.295 26.824C166.033 26.6533 165.825 26.4373 165.671 26.176V28.704H164.967V22.824H165.591V23.608C165.756 23.352 165.969 23.1467 166.231 22.992C166.497 22.832 166.791 22.752 167.111 22.752C167.399 22.752 167.663 22.8107 167.903 22.928C168.143 23.0453 168.351 23.2053 168.527 23.408C168.703 23.6053 168.839 23.8347 168.935 24.096C169.036 24.3573 169.087 24.6293 169.087 24.912C169.087 25.2107 169.041 25.4933 168.951 25.76C168.86 26.0213 168.732 26.2507 168.567 26.448C168.401 26.64 168.204 26.7947 167.975 26.912C167.745 27.024 167.492 27.08 167.215 27.08ZM166.999 26.472C167.207 26.472 167.393 26.4293 167.559 26.344C167.729 26.2533 167.873 26.136 167.991 25.992C168.113 25.8427 168.207 25.6747 168.271 25.488C168.335 25.3013 168.367 25.1093 168.367 24.912C168.367 24.704 168.329 24.5067 168.255 24.32C168.18 24.128 168.079 23.9627 167.951 23.824C167.823 23.68 167.671 23.568 167.495 23.488C167.324 23.4027 167.137 23.36 166.935 23.36C166.807 23.36 166.673 23.3867 166.535 23.44C166.401 23.488 166.273 23.5547 166.151 23.64C166.033 23.72 165.929 23.8187 165.839 23.936C165.753 24.048 165.697 24.168 165.671 24.296V25.488C165.729 25.6267 165.804 25.7573 165.895 25.88C165.985 25.9973 166.089 26.1013 166.207 26.192C166.324 26.2773 166.449 26.3467 166.583 26.4C166.716 26.448 166.855 26.472 166.999 26.472ZM171.023 27.08C170.825 27.08 170.641 27.048 170.471 26.984C170.3 26.9147 170.151 26.8213 170.023 26.704C169.9 26.5867 169.801 26.4507 169.727 26.296C169.657 26.136 169.623 25.9627 169.623 25.776C169.623 25.584 169.665 25.4107 169.751 25.256C169.836 25.096 169.956 24.96 170.111 24.848C170.271 24.736 170.457 24.648 170.671 24.584C170.889 24.52 171.127 24.488 171.383 24.488C171.585 24.488 171.791 24.5067 171.999 24.544C172.207 24.5813 172.391 24.632 172.551 24.696V24.36C172.551 24.0187 172.455 23.752 172.263 23.56C172.071 23.3627 171.799 23.264 171.447 23.264C171.025 23.264 170.583 23.4267 170.119 23.752L169.887 23.296C170.425 22.9333 170.967 22.752 171.511 22.752C172.06 22.752 172.487 22.8987 172.791 23.192C173.1 23.4853 173.255 23.8987 173.255 24.432V26.136C173.255 26.3013 173.329 26.3867 173.479 26.392V27C173.404 27.0107 173.343 27.0187 173.295 27.024C173.247 27.0293 173.196 27.032 173.143 27.032C173.004 27.032 172.892 26.992 172.807 26.912C172.727 26.8267 172.679 26.7253 172.663 26.608L172.647 26.312C172.46 26.5627 172.223 26.7547 171.935 26.888C171.652 27.016 171.348 27.08 171.023 27.08ZM171.207 26.552C171.457 26.552 171.689 26.5067 171.903 26.416C172.121 26.32 172.287 26.1947 172.399 26.04C172.5 25.9387 172.551 25.8347 172.551 25.728V25.112C172.209 24.9787 171.855 24.912 171.487 24.912C171.135 24.912 170.847 24.9867 170.623 25.136C170.404 25.2853 170.295 25.48 170.295 25.72C170.295 25.8373 170.316 25.9467 170.359 26.048C170.407 26.1493 170.471 26.2373 170.551 26.312C170.636 26.3867 170.735 26.4453 170.847 26.488C170.959 26.5307 171.079 26.552 171.207 26.552ZM176.156 24.12C176.156 23.7787 176.214 23.44 176.332 23.104C176.454 22.7627 176.63 22.4587 176.86 22.192C177.094 21.92 177.38 21.7013 177.716 21.536C178.052 21.3707 178.433 21.288 178.86 21.288C179.366 21.288 179.801 21.4027 180.164 21.632C180.526 21.8613 180.796 22.16 180.972 22.528L180.404 22.896C180.318 22.7147 180.214 22.5627 180.092 22.44C179.974 22.3173 179.844 22.2187 179.7 22.144C179.561 22.0693 179.417 22.016 179.268 21.984C179.118 21.952 178.972 21.936 178.828 21.936C178.513 21.936 178.233 22.0027 177.988 22.136C177.748 22.264 177.545 22.4347 177.38 22.648C177.214 22.856 177.089 23.0933 177.004 23.36C176.924 23.6213 176.884 23.8853 176.884 24.152C176.884 24.4507 176.932 24.736 177.028 25.008C177.129 25.2747 177.268 25.512 177.444 25.72C177.62 25.928 177.828 26.0933 178.068 26.216C178.308 26.3387 178.569 26.4 178.852 26.4C179.001 26.4 179.153 26.3813 179.308 26.344C179.468 26.3067 179.62 26.248 179.764 26.168C179.908 26.0827 180.041 25.9787 180.164 25.856C180.292 25.728 180.396 25.576 180.476 25.4L181.076 25.728C180.985 25.9413 180.857 26.1307 180.692 26.296C180.532 26.456 180.348 26.592 180.14 26.704C179.937 26.816 179.721 26.9013 179.492 26.96C179.262 27.0187 179.038 27.048 178.82 27.048C178.43 27.048 178.073 26.9627 177.748 26.792C177.422 26.6213 177.14 26.4 176.9 26.128C176.665 25.8507 176.481 25.5387 176.348 25.192C176.22 24.84 176.156 24.4827 176.156 24.12ZM181.849 27.952C181.94 28.032 182.028 28.088 182.113 28.12C182.204 28.152 182.297 28.168 182.393 28.168C182.532 28.168 182.662 28.0827 182.785 27.912C182.908 27.7413 183.03 27.4373 183.153 27L181.385 22.824H182.113L183.537 26.368L184.833 22.824H185.505L183.681 27.576C183.59 27.8107 183.5 28.0053 183.409 28.16C183.324 28.3147 183.23 28.4373 183.129 28.528C183.033 28.624 182.929 28.6907 182.817 28.728C182.705 28.7653 182.582 28.784 182.449 28.784C182.31 28.784 182.193 28.768 182.097 28.736C182.006 28.704 181.924 28.648 181.849 28.568V27.952ZM188.48 27.08C188.134 27.08 187.827 26.9947 187.56 26.824C187.299 26.6533 187.091 26.4373 186.936 26.176V28.704H186.232V22.824H186.856V23.608C187.022 23.352 187.235 23.1467 187.496 22.992C187.763 22.832 188.056 22.752 188.376 22.752C188.664 22.752 188.928 22.8107 189.168 22.928C189.408 23.0453 189.616 23.2053 189.792 23.408C189.968 23.6053 190.104 23.8347 190.2 24.096C190.302 24.3573 190.352 24.6293 190.352 24.912C190.352 25.2107 190.307 25.4933 190.216 25.76C190.126 26.0213 189.998 26.2507 189.832 26.448C189.667 26.64 189.47 26.7947 189.24 26.912C189.011 27.024 188.758 27.08 188.48 27.08ZM188.264 26.472C188.472 26.472 188.659 26.4293 188.824 26.344C188.995 26.2533 189.139 26.136 189.256 25.992C189.379 25.8427 189.472 25.6747 189.536 25.488C189.6 25.3013 189.632 25.1093 189.632 24.912C189.632 24.704 189.595 24.5067 189.52 24.32C189.446 24.128 189.344 23.9627 189.216 23.824C189.088 23.68 188.936 23.568 188.76 23.488C188.59 23.4027 188.403 23.36 188.2 23.36C188.072 23.36 187.939 23.3867 187.8 23.44C187.667 23.488 187.539 23.5547 187.416 23.64C187.299 23.72 187.195 23.8187 187.104 23.936C187.019 24.048 186.963 24.168 186.936 24.296V25.488C186.995 25.6267 187.07 25.7573 187.16 25.88C187.251 25.9973 187.355 26.1013 187.472 26.192C187.59 26.2773 187.715 26.3467 187.848 26.4C187.982 26.448 188.12 26.472 188.264 26.472ZM193.888 23.352H191.92V27H191.232V22.824H193.888V23.352ZM195.679 27.08C195.482 27.08 195.298 27.048 195.127 26.984C194.956 26.9147 194.807 26.8213 194.679 26.704C194.556 26.5867 194.458 26.4507 194.383 26.296C194.314 26.136 194.279 25.9627 194.279 25.776C194.279 25.584 194.322 25.4107 194.407 25.256C194.492 25.096 194.612 24.96 194.767 24.848C194.927 24.736 195.114 24.648 195.327 24.584C195.546 24.52 195.783 24.488 196.039 24.488C196.242 24.488 196.447 24.5067 196.655 24.544C196.863 24.5813 197.047 24.632 197.207 24.696V24.36C197.207 24.0187 197.111 23.752 196.919 23.56C196.727 23.3627 196.455 23.264 196.103 23.264C195.682 23.264 195.239 23.4267 194.775 23.752L194.543 23.296C195.082 22.9333 195.623 22.752 196.167 22.752C196.716 22.752 197.143 22.8987 197.447 23.192C197.756 23.4853 197.911 23.8987 197.911 24.432V26.136C197.911 26.3013 197.986 26.3867 198.135 26.392V27C198.06 27.0107 197.999 27.0187 197.951 27.024C197.903 27.0293 197.852 27.032 197.799 27.032C197.66 27.032 197.548 26.992 197.463 26.912C197.383 26.8267 197.335 26.7253 197.319 26.608L197.303 26.312C197.116 26.5627 196.879 26.7547 196.591 26.888C196.308 27.016 196.004 27.08 195.679 27.08ZM195.863 26.552C196.114 26.552 196.346 26.5067 196.559 26.416C196.778 26.32 196.943 26.1947 197.055 26.04C197.156 25.9387 197.207 25.8347 197.207 25.728V25.112C196.866 24.9787 196.511 24.912 196.143 24.912C195.791 24.912 195.503 24.9867 195.279 25.136C195.06 25.2853 194.951 25.48 194.951 25.72C194.951 25.8373 194.972 25.9467 195.015 26.048C195.063 26.1493 195.127 26.2373 195.207 26.312C195.292 26.3867 195.391 26.4453 195.503 26.488C195.615 26.5307 195.735 26.552 195.863 26.552ZM199.717 25.368C199.482 25.2827 199.287 25.1413 199.133 24.944C198.978 24.7467 198.901 24.488 198.901 24.168C198.901 23.9707 198.935 23.7893 199.005 23.624C199.079 23.4587 199.181 23.3173 199.309 23.2C199.437 23.0773 199.586 22.984 199.757 22.92C199.927 22.856 200.114 22.824 200.317 22.824H201.877V27H201.189V25.488H200.397L199.485 27H198.685L199.717 25.368ZM201.189 24.88V23.432H200.357C200.266 23.432 200.175 23.448 200.085 23.48C199.994 23.512 199.911 23.56 199.837 23.624C199.767 23.688 199.709 23.7653 199.661 23.856C199.618 23.9467 199.597 24.0507 199.597 24.168C199.597 24.392 199.669 24.568 199.813 24.696C199.957 24.8187 200.125 24.88 200.317 24.88H201.189Z" fill="#464646"/>
<path d="M48.9992 7.00001C45.9992 7 40.9999 6.5 40.9999 10.5C40.9999 11.3335 40.4999 14 48.9992 14" stroke="#464646" stroke-width="2"/>
<path d="M51 6.5L54.313 12.5H56.313L59.5 6.5L54.313 16.5" stroke="#464646" stroke-width="2"/>
<path d="M119 6.5L122.313 12.5H124.313L127.5 6.5L122.313 16.5" stroke="#464646" stroke-width="2"/>
<path d="M80.813 7H74.813V15M63.5 7C66.187 7 70.687 6.49999 71.5 9C71.8252 9.99999 70.3 12.7 63.5 11.5L63.5 15L63.5 7Z" stroke="#464646" stroke-width="2"/>
<path d="M109 7C111.5 7 115.687 6.68755 116.5 9.18755C116.825 10.1876 115.8 12.8876 109 11.6876V15V7Z" stroke="#464646" stroke-width="2"/>
<path d="M88.813 15V11M79.5 14.5L82.063 11M82.063 11L85 7H88.813V11M82.063 11H88.813M101.813 6V12M101.813 15V12M101.813 12C101 13 99 15 95.5 14C95.5 14 93.5 13.5 93.313 11.286V6" stroke="#464646" stroke-width="2"/>
<path d="M95.313 2C95.9797 3.16667 97.813 4.8 99.813 2" stroke="#464646" stroke-width="2"/>
<path d="M15.313 4C19.4797 2.16666 28.413 0.0999975 30.813 6.5C31.813 9 31.913 14.6 24.313 17" stroke="#464646" stroke-width="3"/>
<path d="M19.8129 22C17.4796 25.8333 11.3129 32.5 5.31291 28.5C2.81291 27 -0.68709 22.3 5.31291 15.5" stroke="#464646" stroke-width="3"/>
<path d="M7.31299 8.5L8.81299 13L5.31299 11.5L7.31299 8.5Z" fill="#464646"/>
<path d="M19.313 17L20.813 15.5L21.813 17.5L19.313 17Z" fill="#464646"/>
<path d="M27.313 21L22.813 20.5L25.313 24L27.313 21Z" fill="#464646"/>
<path d="M7.31299 8.5L8.81299 13L5.31299 11.5L7.31299 8.5Z" stroke="#464646"/>
<path d="M19.313 17L20.813 15.5L21.813 17.5L19.313 17Z" stroke="#464646"/>
<path d="M27.313 21L22.813 20.5L25.313 24L27.313 21Z" stroke="#464646"/>
<path d="M106 13.5H105V14.5H106V13.5Z" stroke="#464646"/>
</svg>
